HIERARCHY
ROOT Hips
{
	OFFSET 0.00000 0.00000 0.00000
	CHANNELS 6 Xposition Yposition Zposition Zrotation Yrotation Xrotation 
	JOINT LHipJoint
	{
		OFFSET 0 0 0
		CHANNELS 3 Zrotation Yrotation Xrotation
		JOINT LeftUpLeg
		{
			OFFSET 1.17584 -1.63585 1.00361
			CHANNELS 3 Zrotation Yrotation Xrotation
			JOINT LeftLeg
			{
				OFFSET 2.23889 -6.15131 0.00000
				CHANNELS 3 Zrotation Yrotation Xrotation
				JOINT LeftFoot
				{
					OFFSET 2.65161 -7.28525 0.00000
					CHANNELS 3 Zrotation Yrotation Xrotation
					JOINT LeftToeBase
					{
						OFFSET 0.24898 -0.68407 1.57235
						CHANNELS 3 Zrotation Yrotation Xrotation
						End Site
						{
							OFFSET 0.00000 -0.00000 0.85838
						}
					}
				}
			}
		}
	}
	JOINT RHipJoint
	{
		OFFSET 0 0 0
		CHANNELS 3 Zrotation Yrotation Xrotation
		JOINT RightUpLeg
		{
			OFFSET -1.15592 -1.63585 1.00361
			CHANNELS 3 Zrotation Yrotation Xrotation
			JOINT RightLeg
			{
				OFFSET -2.34071 -6.43104 0.00000
				CHANNELS 3 Zrotation Yrotation Xrotation
				JOINT RightFoot
				{
					OFFSET -2.59113 -7.11908 0.00000
					CHANNELS 3 Zrotation Yrotation Xrotation
					JOINT RightToeBase
					{
						OFFSET -0.17867 -0.49089 1.70981
						CHANNELS 3 Zrotation Yrotation Xrotation
						End Site
						{
							OFFSET -0.00000 -0.00000 0.89861
						}
					}
				}
			}
		}
	}
	JOINT LowerBack
	{
		OFFSET 0 0 0
		CHANNELS 3 Zrotation Yrotation Xrotation
		JOINT Spine
		{
			OFFSET -0.02255 1.90764 -0.16605
			CHANNELS 3 Zrotation Yrotation Xrotation
			JOINT Spine1
			{
				OFFSET -0.00365 1.92150 -0.04898
				CHANNELS 3 Zrotation Yrotation Xrotation
				JOINT Neck
				{
					OFFSET 0 0 0
					CHANNELS 3 Zrotation Yrotation Xrotation
					JOINT Neck1
					{
						OFFSET 0.00372 1.59170 0.08694
						CHANNELS 3 Zrotation Yrotation Xrotation
						JOINT Head
						{
							OFFSET 0.12558 1.58643 -0.08078
							CHANNELS 3 Zrotation Yrotation Xrotation
							End Site
							{
								OFFSET 0.04211 1.60835 -0.03803
							}
						}
					}
				}
				JOINT LeftShoulder
				{
					OFFSET 0 0 0
					CHANNELS 3 Zrotation Yrotation Xrotation
					JOINT LeftArm
					{
						OFFSET 3.69324 0.96316 0.19077
						CHANNELS 3 Zrotation Yrotation Xrotation
						JOINT LeftForeArm
						{
							OFFSET 4.87796 -0.00000 -0.00000
							CHANNELS 3 Zrotation Yrotation Xrotation
							JOINT LeftHand
							{
								OFFSET 3.23169 -0.00000 0.00000
								CHANNELS 3 Zrotation Yrotation Xrotation
								JOINT LeftFingerBase
								{
									OFFSET 0 0 0
									CHANNELS 3 Zrotation Yrotation Xrotation
									JOINT LeftHandIndex1
									{
										OFFSET 0.73132 -0.00000 0.00000
										CHANNELS 3 Zrotation Yrotation Xrotation
										End Site
										{
											OFFSET 0.58961 -0.00000 0.00000
										}
									}
								}
								JOINT LThumb
								{
									OFFSET 0 0 0
									CHANNELS 3 Zrotation Yrotation Xrotation
									End Site
									{
										OFFSET 0.59861 -0.00000 0.59861
									}
								}
							}
						}
					}
				}
				JOINT RightShoulder
				{
					OFFSET 0 0 0
					CHANNELS 3 Zrotation Yrotation Xrotation
					JOINT RightArm
					{
						OFFSET -3.66103 0.75145 0.08281
						CHANNELS 3 Zrotation Yrotation Xrotation
						JOINT RightForeArm
						{
							OFFSET -4.91430 -0.00000 0.00000
							CHANNELS 3 Zrotation Yrotation Xrotation
							JOINT RightHand
							{
								OFFSET -3.29093 -0.00000 0.00000
								CHANNELS 3 Zrotation Yrotation Xrotation
								JOINT RightFingerBase
								{
									OFFSET 0 0 0
									CHANNELS 3 Zrotation Yrotation Xrotation
									JOINT RightHandIndex1
									{
										OFFSET -0.54512 -0.00000 0.00000
										CHANNELS 3 Zrotation Yrotation Xrotation
										End Site
										{
											OFFSET -0.43949 -0.00000 0.00000
										}
									}
								}
								JOINT RThumb
								{
									OFFSET 0 0 0
									CHANNELS 3 Zrotation Yrotation Xrotation
									End Site
									{
										OFFSET -0.44620 -0.00000 0.44620
									}
								}
							}
						}
					}
				}
			}
		}
	}
}
MOTION
Frames: 9
Frame Time: .0083333
12.3907 16.3241 1.4657 0 0 0 0 0 0 -21 0 0 0 0 0 0 0 0 0 0 0 0 0 0 21 0 0 0 0 0 0 0 0 0 0 0 0 0 0 0 0 0 0 0 0 0 0 -16 0 0 21 0 0 11 0 0 0 -8 0 0 0 0 0 0 0 0 0 0 0 0 0 0 0 0 0 0 0 0 8 0 0 0 0 0 0 0 0 0 0 0 0 0 0 0 0 0
12.3907 16.3241 1.4657 145.3150 -88.7077 -146.4210 0.0000 0.0000 0.0000 -11.2904 -0.6346 -9.7853 2.8907 10.5160 30.6646 1.8142 7.7321 -29.2155 2.5302 -9.8925 -28.6295 0.0000 0.0000 0.0000 11.8026 8.0311 -12.7685 -5.5629 -13.9909 43.2010 -3.6504 -2.1745 -36.9914 -0.2840 -3.4271 9.4702 0.7464 1.2284 -9.4904 -2.6530 1.7461 3.4095 -2.9516 0.9669 9.0818 3.4985 -1.0993 -1.4409 2.8554 -2.9428 20.3442 0.1226 -1.2038 6.4205 -0.0000 0.0000 0.0000 -79.6916 -5.1895 36.4407 31.6861 -42.2955 -12.5291 -0.0000 -0.0000 13.5800 25.1106 -18.6837 -8.5382 -7.1250 0.0000 -0.0000 -1.9811 9.5110 1.6275 -0.0000 0.0000 0.0000 88.0968 3.0013 34.6644 -32.1899 42.6981 -12.8694 0.0000 0.0000 21.0020 -32.2980 -31.1745 18.1190 7.1250 -0.0000 -0.0000 -1.0555 -65.5702 0.5245
12.3927 16.2913 1.4661 151.4310 -88.7402 -152.5730 0.0000 0.0000 0.0000 -11.0926 -0.7986 -10.2644 3.0652 10.7999 31.6081 1.8565 7.5729 -29.3928 2.6152 -10.0444 -29.1205 0.0000 0.0000 0.0000 11.9800 8.1347 -12.3814 -5.4306 -13.8529 42.6513 -3.6535 -1.9566 -36.9318 -0.3737 -3.9264 10.8698 0.8969 1.2356 -9.4193 -2.6438 1.7350 3.3695 -3.0294 0.9693 9.0005 3.2511 -1.1370 -0.9865 3.0902 -2.9797 20.0239 0.2428 -1.2358 6.2452 0.0000 0.0000 0.0000 -79.6636 -5.0973 36.3787 31.6745 -42.2861 -12.5212 -0.0000 -0.0000 13.4915 24.9421 -21.1194 -9.5129 -7.1250 0.0000 -0.0000 -2.3385 6.9224 2.0414 0.0000 0.0000 0.0000 88.1537 2.8720 34.7315 -32.2129 42.7162 -12.8850 0.0000 0.0000 21.1544 -32.3370 -31.4582 18.2830 7.1250 -0.0000 -0.0000 -0.9734 -65.8853 0.4908
12.3965 16.2585 1.4664 152.4850 -88.7337 -153.6090 0.0000 0.0000 0.0000 -11.0198 -0.9444 -10.7613 3.2339 11.0645 32.4976 1.9336 7.3720 -29.7680 2.5829 -9.9871 -28.9350 0.0000 0.0000 0.0000 12.0077 8.2154 -12.0874 -5.3094 -13.7240 42.1430 -3.6535 -1.6386 -36.8239 -0.4891 -4.4843 12.4434 0.9162 1.2335 -9.4314 -2.6290 1.7286 3.3528 -3.0254 0.9667 8.9890 3.2040 -1.1372 -0.8596 3.0944 -2.9670 19.9467 0.2544 -1.2360 6.1990 -0.0000 0.0000 0.0000 -79.7131 -5.0544 36.3439 31.6729 -42.2849 -12.5202 -0.0000 -0.0000 13.5407 24.8408 -23.4593 -10.4419 -7.1250 0.0000 -0.0000 -2.6691 4.4458 2.4569 -0.0000 0.0000 0.0000 88.1534 2.8453 34.7166 -32.1991 42.7053 -12.8756 0.0000 0.0000 21.1582 -32.2731 -31.4689 18.2461 7.1250 -0.0000 -0.0000 -0.8809 -65.8780 0.4440
12.4015 16.2258 1.4659 151.8380 -88.7243 -152.9800 0.0000 0.0000 0.0000 -10.9806 -1.1311 -11.2653 3.4316 11.3629 33.5138 2.0332 7.1440 -30.2643 2.5846 -9.9901 -28.9446 0.0000 0.0000 0.0000 12.0176 8.3045 -11.7007 -5.1682 -13.5708 41.5446 -3.6359 -1.3236 -36.6311 -0.6990 -5.3443 14.8932 0.8622 1.2247 -9.3891 -2.6197 1.7230 3.3767 -2.9863 0.9607 8.9877 3.2690 -1.1102 -1.0880 3.0250 -2.9412 20.1036 0.2198 -1.2174 6.2869 0.0000 -0.0000 0.0000 -79.7468 -5.0902 36.3021 31.7355 -42.3353 -12.5624 -0.0000 -0.0000 13.6643 24.6733 -28.0408 -12.1863 -7.1250 0.0000 -0.0000 -3.3754 -0.3497 3.4018 0.0000 -0.0000 0.0000 88.1405 2.9063 34.7323 -32.1690 42.6815 -12.8552 0.0000 0.0000 21.1386 -31.9122 -30.7118 17.6431 7.1250 -0.0000 -0.0000 -0.7525 -64.9628 0.3634
12.4060 16.1939 1.4658 152.6000 -88.7118 -153.7450 0.0000 0.0000 0.0000 -10.9180 -1.2823 -11.6993 3.5969 11.6038 34.3443 2.1052 6.9777 -30.6171 2.5915 -10.0023 -28.9843 0.0000 0.0000 0.0000 12.0472 8.4117 -11.3611 -5.0501 -13.4400 41.0388 -3.6399 -0.8612 -36.5022 -0.9651 -6.2548 17.5254 0.8581 1.2239 -9.3740 -2.6110 1.7217 3.3861 -2.9751 0.9596 8.9886 3.2830 -1.0962 -1.1709 2.9956 -2.9237 20.1521 0.2081 -1.2076 6.3161 0.0000 -0.0000 0.0000 -79.7693 -5.1153 36.2630 31.7566 -42.3523 -12.5765 -0.0000 -0.0000 13.7658 24.7655 -28.0066 -12.2231 -7.1250 0.0000 -0.0000 -3.3162 -0.3339 3.3411 0.0000 -0.0000 0.0000 88.1399 2.9262 34.7338 -32.1597 42.6742 -12.8490 0.0000 0.0000 21.1715 -31.7450 -30.3983 17.3836 7.1250 -0.0000 -0.0000 -0.6735 -64.5789 0.3192
12.4152 16.1304 1.4652 152.7920 -88.6931 -153.9360 0.0000 0.0000 0.0000 -10.8459 -1.4414 -12.1491 3.7507 11.8211 35.1018 2.1619 6.8531 -30.8959 2.5972 -10.0125 -29.0171 0.0000 0.0000 0.0000 12.0640 8.6786 -10.9112 -4.9370 -13.3125 40.5498 -3.7311 0.5940 -36.5287 -1.6602 -8.1191 23.0765 0.8418 1.2242 -9.3677 -2.6069 1.7240 3.3993 -2.9613 0.9598 8.9988 3.3306 -1.0761 -1.3117 2.9397 -2.9004 20.2411 0.1819 -1.1929 6.3676 -0.0000 -0.0000 0.0000 -79.7881 -5.1570 36.2273 31.7729 -42.3654 -12.5875 -0.0000 -0.0000 13.8865 24.8238 -27.9932 -12.2496 -7.1250 0.0000 -0.0000 -3.2800 -0.3325 3.3044 -0.0000 -0.0000 0.0000 88.1409 2.9547 34.7214 -32.1552 42.6706 -12.8459 0.0000 0.0000 21.2061 -31.5964 -30.1024 17.1456 7.1250 -0.0000 -0.0000 -0.6103 -64.2192 0.2841
12.4156 16.1308 1.4655 152.9800 -88.6721 -154.1220 0.0000 0.0000 0.0000 -10.8390 -1.5100 -12.3516 3.8392 11.9433 35.5318 2.2046 6.7821 -31.1166 2.6066 -10.0292 -29.0714 0.0000 0.0000 0.0000 12.0626 8.6039 -10.8241 -4.8772 -13.2441 40.2893 -3.6857 0.4201 -36.3499 -1.7233 -8.2641 23.5193 0.8294 1.2268 -9.3635 -2.6072 1.7292 3.4109 -2.9538 0.9617 9.0088 3.3877 -1.0549 -1.4539 2.8835 -2.8767 20.3331 0.1539 -1.1775 6.4204 -0.0000 0.0000 0.0000 -79.7986 -5.1984 36.1938 31.7825 -42.3731 -12.5940 -0.0000 -0.0000 13.9964 24.9175 -28.0061 -12.3057 -7.1250 0.0000 -0.0000 -3.2268 -0.3664 3.2525 -0.0000 0.0000 0.0000 88.1473 2.9776 34.7061 -32.1568 42.6718 -12.8470 0.0000 0.0000 21.2434 -31.4744 -29.8895 16.9654 7.1250 -0.0000 -0.0000 -0.5445 -63.9563 0.2501
12.4163 16.1320 1.4656 153.4840 -88.6538 -154.6240 0.0000 0.0000 0.0000 -10.8271 -1.5547 -12.4920 3.8998 12.0259 35.8235 2.2319 6.7444 -31.2613 2.6156 -10.0452 -29.1232 0.0000 0.0000 0.0000 12.0722 8.5965 -10.7357 -4.8370 -13.1979 40.1137 -3.6741 0.4160 -36.2925 -1.8321 -8.5073 24.2659 0.8291 1.2304 -9.3602 -2.6087 1.7342 3.4197 -2.9544 0.9643 9.0168 3.4397 -1.0362 -1.5690 2.8373 -2.8558 20.4074 0.1302 -1.1637 6.4631 0.0000 0.0000 0.0000 -79.8014 -5.2333 36.1626 31.7858 -42.3757 -12.5962 -0.0000 -0.0000 14.0766 24.9930 -28.0191 -12.3520 -7.1250 0.0000 -0.0000 -3.1842 -0.3964 3.2111 0.0000 0.0000 0.0000 88.1568 2.9928 34.6956 -32.1637 42.6773 -12.8517 0.0000 0.0000 21.2721 -31.3759 -29.7856 16.8534 7.1250 -0.0000 -0.0000 -0.4622 -63.8173 0.2108
